<svg id="Layer_1" data-name="Layer 1" xmlns="http://www.w3.org/2000/svg" viewBox="0 0 150 150"><defs><style>.cls-1{fill:none}.cls-2{clip-path:url(#clip-path)}.cls-3{clip-path:url(#clip-path-2)}.cls-4{fill:#0069ff}</style><clipPath id="clip-path"><path class="cls-1" d="M15 27.63h120v89.73H15z"/></clipPath><clipPath id="clip-path-2"><path class="cls-1" d="M15 27.63h120v89.73H15z"/></clipPath></defs><title>logos</title><g class="cls-2 cls-3" id="Mark_Blue" data-name="Mark Blue"><path class="cls-4" d="M123.5 65.51l-13.68-7.16-34 17.82a1.68 1.68 0 0 1-1.56 0l-34-17.82-13.76 7.16a1 1 0 0 0 0 1.76l47.72 25a1.68 1.68 0 0 0 1.56 0l47.72-25a1 1 0 0 0 0-1.76"/><path class="cls-4" d="M113.12 49.13L75.78 68.69a1.68 1.68 0 0 1-1.56 0L36.88 49.13a1 1 0 0 1 0-1.76l37.34-19.55a1.68 1.68 0 0 1 1.56 0l37.35 19.55a1 1 0 0 1 0 1.76M134.47 84.68l-15-7.84-43.69 22.9a1.68 1.68 0 0 1-1.56 0L30.5 76.84l-15 7.84a1 1 0 0 0 0 1.76l58.69 30.73a1.68 1.68 0 0 0 1.56 0l58.69-30.73a1 1 0 0 0 0-1.76"/></g></svg>