<svg id="Layer_1" xmlns="http://www.w3.org/2000/svg" viewBox="282 -127 960 560"><style>.st0{fill:#b1bacc}</style><path class="st0" d="M880.7 376H570.8c-3.6-3.8.8-96.7 1-108.9.1-9.1-3.5-27.8.6-35.9-3-10.7-28.2-15.6-20.9-31 3.7-7.9 12.5-8.2 15.4-18.4 2-6.8.3-17.9-.4-24.6-1.7-15.5-10.3-28-10.4-43.8-.1-13.4-1.6-24.9-2-38.8-.7-24.8-6.9-44.5-11.5-68.4-2.2-11.3-2.9-24.9-2.1-36.7.6-8.8 1.5-12 .1-20.5-.8-5.3-6.5-14.8-2.7-19.9 36.3-.4 72.8 1.8 110 .9.1-9.9.2-19.7.2-29.9 16.3 5.9 17.5 2.9 21.5 21.7 1.7 8.1 2.1 26 9 30.9 11.7 8.4 38.9-1.5 44 15.9 5.7 1.8 10.8-1.5 15.8-1.8 7.5-4.3 7.4-7.1 18.6-7.2 6-.1 30.5 3.9 29.2 10.2-.7 2-3.5 1-3.7 3.6 3.3 2.2 6.7-1 10.1 0 2.6 1.5 7.4 14.7 9 16.7 2.9-2.6.2-6.5 3.8-8.9 3.5-.8 7.6-1.7 12.1-1 .4.2 10.8 10.5 10.9 10.6 3.5 3.3 10.6 0 9.6 8.5 14.6 11.4 39.7-18.4 46.3-11.7-.4 3.5 4 5 3.3 8.6 7.9 4.2 21.9-3 30.3-2.2 8.3.7 10.3 7.9 17.5 8.8 4.4-.8 12.9-6.1 17.9-1.8 3.2 7-38.5 23.7-43.4 26-16.2 7.3-28.7 17.6-40.3 31.2-9.7 11.4-19.2 22.3-30 32.7-8.5 8.2-19.9 23.5-29.3 28.9-.8 11.8 2 24.1.7 35.7-1.5 13.4-1.6 10.9-11.5 17.8-11.5 8.1-22 16.9-21.3 32.1 10.1 5.8 12.6 6.5 11.6 19.3-.6 6.7-4.8 15.9-4.7 22.7.3 14.6-2.8 27.1 10.9 35.1 7.4 4.3 13.9 8.1 20.8 12.3 8.9 5.4 14.6 7 21.7 15.1 4.8 5.5 7.2 10.3 13.9 14.6 8.4 5.3 16.8 7.5 22 17 1.9 3.7 9.5 30.6 6.3 34.5z" id="fe5cgM_1_"/></svg>