<svg id="Layer_1" data-name="Layer 1" xmlns="http://www.w3.org/2000/svg" width="965.24" height="173.12" viewBox="0 0 965.24 173.12"><defs><style>.cls-1{fill:#231f20;}</style></defs><title>transform-branding-black</title><polygon class="cls-1" points="397.33 145.19 406.21 145.19 406.21 112.06 403.2 112.59 403.2 142.18 399.14 142.18 383.23 116.1 379.94 116.68 397.33 145.19"/><polygon class="cls-1" points="881.62 145.02 886.44 145.02 891.25 145.02 933.39 31.58 938.35 31.58 938.35 143.35 938.35 145.02 941.36 145.02 941.36 143.35 941.36 28.24 931.28 28.24 889.15 141.69 886.44 141.69 883.73 141.69 844.16 35.14 841.02 35.7 881.62 145.02"/><path class="cls-1" d="M621.6,76a112,112,0,0,0-.52,11.54c.15,18.52,4.67,39.2,12.34,47.71s19.56,12.34,32.05,12.34,24.08-3.5,31.9-12.18,12.49-29.36,12.49-47.88a117.77,117.77,0,0,0-3-26.51l-2.91.51a114.88,114.88,0,0,1,2.94,26c0,18.18-4.36,37.54-11.59,45.54s-17.61,11.18-29.79,11.18-22.87-3.5-29.94-11.34-11.29-27.19-11.44-45.38a112.34,112.34,0,0,1,.56-12.08Z" transform="translate(-4.88 -0.94)"/><polygon class="cls-1" points="296.65 145.19 299.81 145.19 299.06 143.23 295.01 131.6 292.15 132.1 296.35 144.13 296.65 145.19"/><polygon class="cls-1" points="531.26 90.1 531.26 91.01 531.26 94.02 531.26 143.68 531.26 145.19 534.27 145.19 534.27 143.68 534.27 94.02 586.94 94.02 588.45 94.02 588.45 91.01 586.94 91.01 534.27 91.01 534.27 89.57 531.26 90.1"/><path class="cls-1" d="M509.4,119.79c0,7.67-1.5,13.39-6.92,17.61-5.72,4.36-15.8,7.22-26.18,7.22s-20.32-2.86-26.18-7.22c-5.72-4.21-8.43-11-10.38-19.56l-3,.6c2,8.88,5.27,16.55,11.59,21.37,6.17,4.67,17.3,7.83,28,7.83s22-3.16,28-7.83c6.32-4.81,8.13-12,8.13-20,0-9.7-8.32-16-19.19-21.21l-5.5,1C499.78,104.64,509.4,110.48,509.4,119.79Z" transform="translate(-4.88 -0.94)"/><polygon class="cls-1" points="330.97 145.19 330.97 143.68 330.97 125.28 327.96 125.81 327.96 143.68 327.96 145.19 330.97 145.19"/><polygon class="cls-1" points="834.52 145.02 834.52 143.35 834.52 36.84 831.51 37.37 831.51 143.35 831.51 145.02 834.52 145.02"/><path class="cls-1" d="M736.94,55.77V146h2.71V89.24h30.43l32,56.05.41.67h3.25l-1.49-2.67L773.37,89.2c10.17-.3,21.82-2.32,25.44-6.47,3.93-4.5,5.69-15.18,5.69-23.52a63.55,63.55,0,0,0-1.85-15L800,44.7a58.8,58.8,0,0,1,1.79,14.51c0,8-1.49,17.35-4.87,21.19-3.11,3.5-15.7,5.5-26.13,5.5H739.65V55.3Z" transform="translate(-4.88 -0.94)"/><path class="cls-1" d="M417.17,25.88a3.26,3.26,0,0,0-3.27-3.27H393.74a3.26,3.26,0,0,0-3.27,3.27V74.64q0,1.36-.89,1.5t-1.7-1l-35.41-50a7.18,7.18,0,0,0-5.17-2.59H326.87a3.26,3.26,0,0,0-3.27,3.27v90.2l27-4.7V70.28c0-.91.29-1.43.88-1.57s1.16.16,1.7.88l24.3,37.1,39.71-6.93Z" transform="translate(-4.88 -0.94)"/><path class="cls-1" d="M558,48.89a3.17,3.17,0,0,1,2.31-.94h42.22a3.15,3.15,0,0,0,2.31-1,3.18,3.18,0,0,0,1-2.33V25.9a3.18,3.18,0,0,0-1-2.33,3.15,3.15,0,0,0-2.31-1h-69.2a3.24,3.24,0,0,0-3.25,3.27V80.08l27-4.7V51.18A3.1,3.1,0,0,1,558,48.89Z" transform="translate(-4.88 -0.94)"/><path class="cls-1" d="M702.54,36a52.71,52.71,0,0,0-16.41-11.1,51.1,51.1,0,0,0-40,0A51.88,51.88,0,0,0,629.75,36a53.33,53.33,0,0,0-11,16.41c-1.12,2.58-2,7.39-2.67,12.64l28.72-5a24.89,24.89,0,0,1,4-5.52A26.23,26.23,0,0,1,656.58,49a22.58,22.58,0,0,1,19.07,0,27.22,27.22,0,0,1,6.77,4.53l29.26-5.1A52.1,52.1,0,0,0,702.54,36Z" transform="translate(-4.88 -0.94)"/><path class="cls-1" d="M504.12,80.86a37.17,37.17,0,0,0-11-6.59,86.38,86.38,0,0,0-10.76-3.38q-1-.16-4.36-.91A56.63,56.63,0,0,1,471,67.92c-2.45-.88-5.83-2.39-7.53-4.13A10.67,10.67,0,0,1,461,57.52a8.09,8.09,0,0,1,1.72-4.45,6.48,6.48,0,0,1,2.93-1.9,14,14,0,0,1,3.74-.66c1.32-.05,2.47-.08,3.47-.08a31.89,31.89,0,0,1,11,2.23,51.73,51.73,0,0,1,12.94,7.5,2.56,2.56,0,0,0,2.45.66,3.48,3.48,0,0,0,2.18-1.65l10.62-16.31a4.75,4.75,0,0,0,.68-3,4.51,4.51,0,0,0-1.22-2.8,63.56,63.56,0,0,0-17.36-11.79,49.82,49.82,0,0,0-20.5-4A55.67,55.67,0,0,0,460.2,23a33.71,33.71,0,0,0-12.6,6.1,33.2,33.2,0,0,0-9.33,11.79q-3.68,7.42-3.68,18.79a41,41,0,0,0,2,13.44,33.08,33.08,0,0,0,5.24,9.81,29.87,29.87,0,0,0,7.42,6.76,54.79,54.79,0,0,0,6.21,3.42l51.86-9A30.86,30.86,0,0,0,504.12,80.86Z" transform="translate(-4.88 -0.94)"/><path class="cls-1" d="M852.44,22.75h-19A3.25,3.25,0,0,0,830.22,26v1.7l24.73-4.31A5.71,5.71,0,0,0,852.44,22.75Z" transform="translate(-4.88 -0.94)"/><path class="cls-1" d="M30.81,47.68H50.15a3.1,3.1,0,0,1,2.38,1,3.29,3.29,0,0,1,.88,2.31v91.55a3.26,3.26,0,0,0,3.27,3.27H77.11a3.1,3.1,0,0,0,2.38-1,3.28,3.28,0,0,0,.88-2.32V50.94a3.26,3.26,0,0,1,3.27-3.27h19.07a3.1,3.1,0,0,0,2.38-1,3.27,3.27,0,0,0,.88-2.32V25.88a3.28,3.28,0,0,0-.88-2.31,3.1,3.1,0,0,0-2.38-1H30.81a3.26,3.26,0,0,0-3.27,3.27V44.41a3.26,3.26,0,0,0,3.27,3.27Z" transform="translate(-4.88 -0.94)"/><path class="cls-1" d="M274.17,25.75a5.09,5.09,0,0,0-1.84-2.11,4.66,4.66,0,0,0-2.66-.88H250.61a4.86,4.86,0,0,0-2.79.88A5,5,0,0,0,246,25.75L202.8,121.56c-7.93-11.93-16.83-25.43-19.87-30.17a2.44,2.44,0,0,1-.48-2.25,3.78,3.78,0,0,1,1.43-2,24.91,24.91,0,0,0,5.85-5.11,34.65,34.65,0,0,0,4.5-6.88,37.91,37.91,0,0,0,3.95-16.75A38,38,0,0,0,195.53,44a34.32,34.32,0,0,0-7.35-11.3,32.73,32.73,0,0,0-11.37-7.42,39.05,39.05,0,0,0-14.57-2.66H119.87a3.26,3.26,0,0,0-3.27,3.27v116.6a3.14,3.14,0,0,0,1,2.32,3.17,3.17,0,0,0,2.33,1h20.39a3.27,3.27,0,0,0,3.29-3.27V97a3.25,3.25,0,0,1,3.25-3.27h3A7.13,7.13,0,0,1,155,96.29q4.2,6,8.47,11.85c2.48,3.4,14.56,24.56,19.54,32.48L230,132.41l11.06-21.28a5.06,5.06,0,0,1,1.84-2.11,4.86,4.86,0,0,1,2.79-.88h28.74a4.67,4.67,0,0,1,2.66.88,6.28,6.28,0,0,1,2,2.11l5.4,11.78,29.79-5.2ZM170.27,62.93a10.17,10.17,0,0,1-2.44,3.2A9.89,9.89,0,0,1,164.58,68a10.31,10.31,0,0,1-3.39.61H146.82a3.25,3.25,0,0,1-3.25-3.27V50.94a3.25,3.25,0,0,1,3.25-3.27h14.36A9.34,9.34,0,0,1,166,48.83a9.51,9.51,0,0,1,3.12,2.86,11.44,11.44,0,0,1,1.63,3.54,13.17,13.17,0,0,1,.47,3.2A10,10,0,0,1,170.27,62.93Zm97.85,21.18a2.23,2.23,0,0,1-2,.88H254a2.2,2.2,0,0,1-2-.88A2.17,2.17,0,0,1,252,82l6.81-16.48q.54-1.23,1.23-1.22t1.22,1.22q1.63,4,3.54,8.51T268,82A1.89,1.89,0,0,1,268.11,84.11Z" transform="translate(-4.88 -0.94)"/><path class="cls-1" d="M792.08,25.27a39.06,39.06,0,0,0-14.57-2.66H735.16a3.26,3.26,0,0,0-3.27,3.27v19l71.3-12.44A32.8,32.8,0,0,0,792.08,25.27Z" transform="translate(-4.88 -0.94)"/><rect class="cls-1" x="-1.98" y="85.01" width="978.95" height="4.98" transform="translate(-12.66 84.15) rotate(-9.9)"/></svg>