<?xml version="1.0" encoding="utf-8"?>
<!-- Generator: Adobe Illustrator 21.0.0, SVG Export Plug-In . SVG Version: 6.00 Build 0)  -->
<svg version="1.1" id="Logo" xmlns="http://www.w3.org/2000/svg" xmlns:xlink="http://www.w3.org/1999/xlink" x="0px" y="0px"
	 viewBox="0 0 61 61" style="enable-background:new 0 0 61 61;" xml:space="preserve">
<style type="text/css">
	.st0{fill:#D93175;}
	.st1{fill:#FFFFFF;}
</style>
<circle class="st0" cx="30.5" cy="30.5" r="30"/>
<g>
	<path class="st1" d="M30.5,17.7c4.2,0,4.7,0,6.3,0.1c1.5,0.1,2.4,0.3,2.9,0.5c0.7,0.3,1.3,0.6,1.8,1.2c0.5,0.5,0.9,1.1,1.2,1.8
		c0.2,0.6,0.5,1.4,0.5,2.9c0.1,1.6,0.1,2.1,0.1,6.3s0,4.7-0.1,6.3c-0.1,1.5-0.3,2.4-0.5,2.9c-0.3,0.7-0.6,1.3-1.2,1.8
		c-0.5,0.5-1.1,0.9-1.8,1.2c-0.6,0.2-1.4,0.5-2.9,0.5c-1.6,0.1-2.1,0.1-6.3,0.1s-4.7,0-6.3-0.1c-1.5-0.1-2.4-0.3-2.9-0.5
		c-0.7-0.3-1.3-0.6-1.8-1.2c-0.5-0.5-0.9-1.1-1.2-1.8c-0.2-0.6-0.5-1.4-0.5-2.9c-0.1-1.6-0.1-2.1-0.1-6.3s0-4.7,0.1-6.3
		c0.1-1.5,0.3-2.4,0.5-2.9c0.3-0.7,0.6-1.3,1.2-1.8c0.5-0.5,1.1-0.9,1.8-1.2c0.6-0.2,1.4-0.5,2.9-0.5C25.8,17.7,26.3,17.7,30.5,17.7
		 M30.5,14.9c-4.2,0-4.8,0-6.5,0.1c-1.7,0.1-2.8,0.3-3.8,0.7c-1,0.4-1.9,0.9-2.8,1.8c-0.9,0.9-1.4,1.7-1.8,2.8
		c-0.4,1-0.7,2.1-0.7,3.8c-0.1,1.7-0.1,2.2-0.1,6.5c0,4.2,0,4.8,0.1,6.5c0.1,1.7,0.3,2.8,0.7,3.8c0.4,1,0.9,1.9,1.8,2.8
		c0.9,0.9,1.7,1.4,2.8,1.8c1,0.4,2.1,0.7,3.8,0.7c1.7,0.1,2.2,0.1,6.5,0.1s4.8,0,6.5-0.1c1.7-0.1,2.8-0.3,3.8-0.7
		c1-0.4,1.9-0.9,2.8-1.8c0.9-0.9,1.4-1.7,1.8-2.8c0.4-1,0.7-2.1,0.7-3.8c0.1-1.7,0.1-2.2,0.1-6.5s0-4.8-0.1-6.5
		c-0.1-1.7-0.3-2.8-0.7-3.8c-0.4-1-0.9-1.9-1.8-2.8c-0.9-0.9-1.7-1.4-2.8-1.8c-1-0.4-2.1-0.7-3.8-0.7C35.3,14.9,34.7,14.9,30.5,14.9
		L30.5,14.9z"/>
	<path class="st1" d="M30.5,22.5c-4.4,0-8,3.6-8,8s3.6,8,8,8s8-3.6,8-8S34.9,22.5,30.5,22.5z M30.5,35.7c-2.9,0-5.2-2.3-5.2-5.2
		s2.3-5.2,5.2-5.2c2.9,0,5.2,2.3,5.2,5.2S33.4,35.7,30.5,35.7z"/>
	<circle class="st1" cx="38.9" cy="22.1" r="1.9"/>
</g>
</svg>
