<?xml version="1.0" encoding="UTF-8"?>
<svg width="325px" height="99px" viewBox="0 0 325 99" version="1.1" xmlns="http://www.w3.org/2000/svg" xmlns:xlink="http://www.w3.org/1999/xlink">
    <!-- Generator: Sketch 50.2 (55047) - http://www.bohemiancoding.com/sketch -->
    <title>logo-pearson-original</title>
    <desc>Created with Sketch.</desc>
    <defs></defs>
    <g id="Page-1" stroke="none" stroke-width="1" fill="none" fill-rule="evenodd">
        <g id="logo-pearson-original" fill-rule="nonzero">
            <g id="Document" transform="translate(162.500000, 50.000000) scale(-1, 1) rotate(-180.000000) translate(-162.500000, -50.000000) ">
                <g id="Spread" transform="translate(0.000000, 0.500000)">
                    <g id="Logo">
                        <g id="Group" transform="translate(105.000000, 27.000000)" fill="#81B0AF">
                            <path d="M97.985,2.71 C97.863,3.028 97.534,3.209 97.209,3.132 L97.106,3.106 C96.142,2.897 95.402,2.955 94.882,3.306 C94.144,3.805 93.787,4.93 93.787,6.744 L93.787,23.149 C93.787,29.556 89.966,32.805 82.429,32.805 C75.678,32.805 70.388,29.61 70.388,25.532 C70.388,23.433 71.666,21.917 73.554,21.689 C74.787,21.541 75.963,22.1 76.817,23.001 C78.477,24.752 78.262,26.834 76.25,29.07 C77.44,30.316 79.548,31.054 81.952,31.054 C85.87,31.054 87.542,28.73 87.542,23.285 L87.542,19.139 C86.622,18.854 85.764,18.586 84.192,18.216 C81.019,17.471 76.667,16.48 73.384,14.667 C70.675,13.182 69.3,10.837 69.3,7.696 C69.3,4.278 71.544,0.286 77.867,0.286 C81.408,0.286 84.582,1.967 87.838,5.568 C88.118,1.825 89.536,0.422 92.979,0.422 C94.632,0.422 95.957,0.807 97.532,1.569 C97.957,1.776 98.162,2.271 97.985,2.71 Z M87.542,7.723 C86.773,6.655 84.26,3.468 81.134,3.468 C76.907,3.468 76.021,6.434 76.021,8.922 C76.021,13.015 79.153,14.907 87.542,16.978 L87.542,7.723 Z" id="Shape"></path>
                            <path d="M168.571,0.15 C159.612,0.15 152.856,7.169 152.856,16.478 C152.856,25.593 159.906,33.009 168.571,33.009 C177.345,33.009 184.219,25.868 184.219,16.75 C184.219,6.496 176.096,0.15 168.571,0.15 Z M168.232,31.258 C164.36,31.258 159.918,29.593 159.918,16.613 C159.918,6.713 162.838,1.903 168.844,1.903 C174.593,1.903 177.157,6.439 177.157,16.613 C177.157,26.468 174.238,31.258 168.232,31.258 Z" id="Shape"></path>
                            <path d="M30.08,32.421 C30.08,24.87 28.219,20.71 18.703,20.71 L13.657,20.71 L13.657,43.524 L18.908,43.524 C28.751,43.524 30.08,37.911 30.08,32.421 M13.657,6.744 L13.657,18.61 L18.226,18.61 C25.044,18.61 30.231,20.053 33.643,22.901 C37.209,25.875 37.957,29.644 37.957,32.283 C37.957,43.135 27.487,45.413 18.703,45.413 L18.739,45.413 L0.922,45.413 C0.519,45.413 0.19,45.086 0.19,44.682 L0.19,44.634 L0.19,44.649 C0.19,44.276 0.418,43.946 0.767,43.817 C2.354,43.234 6.665,44.054 6.665,39.431 L6.665,6.75 C6.665,4.372 5.611,2.695 0.792,2.24 C0.41,2.203 0.121,1.889 0.121,1.512 L0.121,1.4 C0.121,0.997 0.449,0.669 0.852,0.669 L19.886,0.669 C20.289,0.669 20.617,0.997 20.617,1.4 L20.617,1.5 C20.617,1.878 20.318,2.198 19.937,2.229 C14.702,2.648 13.651,4.268 13.651,6.75 L13.651,18.59" id="Shape"></path>
                            <path d="M52.365,33.025 C44.079,33.025 37.338,25.524 37.338,16.301 C37.338,6.968 43.659,0.192 52.365,0.192 C59.681,0.192 63.24,4.563 65.281,7.851 C65.483,8.173 65.395,8.603 65.082,8.826 L64.985,8.894 C64.669,9.12 64.23,9.057 63.986,8.75 C61.296,5.378 58.943,3.426 54.877,3.426 C49.733,3.426 44.239,6.969 44.239,16.913 L44.239,16.987 C44.23,17.427 44.241,18.03 44.255,18.59 L65.298,18.59 C65.356,18.59 65.402,18.636 65.407,18.692 L65.419,18.861 C65.716,22.94 64.561,26.603 62.17,29.177 C59.83,31.695 56.438,33.025 52.365,33.025 Z M44.371,20.686 C45.065,27.49 47.72,31.217 51.889,31.217 C53.977,31.217 55.523,30.641 56.618,29.452 C58.12,27.819 58.755,24.871 58.505,20.686 L44.371,20.686 Z" id="Shape"></path>
                            <path d="M139.579,20.319 C139.577,20.32 139.574,20.32 139.572,20.321 C133.819,21.934 131.577,23.567 131.577,26.147 C131.577,29.085 133.909,31.217 137.123,31.217 C140.904,31.217 142.521,29.412 146.512,22.74 L146.566,22.651 C146.585,22.616 146.621,22.596 146.659,22.596 L147.207,22.596 C147.61,22.596 147.939,22.924 147.939,23.328 L147.939,32.916 C147.939,32.976 147.89,33.025 147.828,33.025 L147.106,33.025 C146.886,33.025 146.68,32.928 146.541,32.758 L145.268,31.207 C143.66,32.094 141.04,33.025 138.413,33.025 C131.804,33.025 127.189,28.94 127.189,23.092 C127.189,17.602 130.828,15.546 137.112,13.848 C143.221,12.177 145.384,10.438 145.384,7.205 C145.384,3.614 141.903,2 139.431,2 C134.834,2 132.89,3.707 128.483,11.624 L128.432,11.718 C128.412,11.753 128.377,11.776 128.335,11.776 L127.784,11.776 C127.381,11.776 127.054,11.447 127.054,11.045 L127.054,0.301 C127.054,0.241 127.102,0.192 127.163,0.192 L127.911,0.192 C128.103,0.192 128.291,0.271 128.429,0.405 L130.443,2.42 C132.801,0.957 136.326,0.192 138.615,0.192 C142.054,0.192 144.879,1.281 146.79,3.341 C148.493,5.177 149.431,7.779 149.431,10.669 C149.431,15.671 146.759,18.287 139.579,20.319 Z" id="Shape"></path>
                            <path d="M104.759,4.526 C104.759,2.869 104.338,2.327 101.702,2.162 C101.319,2.136 101.019,1.817 101.019,1.432 C101.019,1.031 101.346,0.704 101.749,0.704 L114.771,0.704 C115.167,0.704 115.489,1.026 115.489,1.42 C115.489,1.81 115.186,2.131 114.796,2.151 C111.783,2.295 111.002,2.783 111.002,4.527 L111.002,23.619 C113.145,27.184 114.686,29.049 117.287,29.613 C117.161,29.164 117.078,28.623 117.078,28.185 C117.078,25.865 118.699,24.246 121.018,24.246 C123.297,24.246 124.888,25.865 124.888,28.185 C124.888,30.38 123.519,32.942 119.656,32.942 C116.49,32.942 113.465,31.127 110.866,26.784 L110.866,31.695 C110.866,32.196 110.454,32.597 109.954,32.585 L101.749,32.366 C101.35,32.354 101.041,32.036 101.041,31.638 L101.041,31.531 C101.041,31.172 101.302,30.862 101.648,30.815 C104.384,30.426 104.761,29.125 104.759,27.778 L104.759,4.526 Z" id="Shape"></path>
                            <path d="M194.814,32.608 C195.004,32.608 195.184,32.533 195.321,32.401 C195.463,32.263 195.542,32.077 195.545,31.879 L195.574,26.433 C195.574,26.433 198.246,32.821 206.919,32.821 L206.995,32.821 C212.402,32.821 215.503,29.373 215.503,23.364 L215.503,4.558 C215.503,2.901 215.923,2.358 218.558,2.192 C218.942,2.17 219.243,1.849 219.243,1.464 C219.243,1.062 218.914,0.735 218.512,0.735 L206.814,0.735 C206.411,0.735 206.083,1.063 206.083,1.467 C206.083,1.856 206.375,2.175 206.749,2.209 C208.874,2.388 209.215,2.926 209.215,4.558 L209.215,21.53 C209.215,27.134 207.621,29.316 203.532,29.316 C200.769,29.316 198.506,26.904 197.093,24.88 C197.093,24.88 196.373,23.977 195.591,22.276 L195.678,4.558 C195.678,2.93 196.007,2.393 198.073,2.21 C198.446,2.176 198.737,1.858 198.737,1.483 C198.737,1.063 198.41,0.735 198.008,0.735 L186.381,0.735 C185.979,0.735 185.652,1.062 185.652,1.466 C185.652,1.849 185.951,2.17 186.335,2.192 C188.97,2.359 189.39,2.902 189.39,4.558 L189.39,27.773 C189.39,29.128 189.011,30.435 186.263,30.826 C185.914,30.875 185.652,31.185 185.652,31.547 L185.652,31.653 C185.652,32.053 185.964,32.373 186.364,32.385 L194.814,32.608 Z" id="Shape"></path>
                        </g>
                        <g id="Group_1">
                            <path d="M69.858,92.289 C90.477,80.542 95.277,54.199 80.931,27.549 C68.323,4.12 40.793,-5.885 20.278,6.042 C-0.24,17.972 -4.243,51.25 4.574,70.401 C17.377,98.208 47.078,105.272 69.858,92.289" id="Shape" fill="#81B0AF"></path>
                            <path d="M69.381,72.078 C73.416,67.769 74.673,61.23 73.971,55.867 C73.169,49.751 69.463,44.093 63.298,40.341 C58.408,37.365 51.985,36.178 45.665,36.122 C45.615,35.12 45.414,31.668 45.314,31.122 C45.166,30.317 44.883,29.882 44.537,29.431 C43.86,28.547 42.683,27.976 41.513,27.642 C40.583,27.378 39.664,27.264 39.012,27.264 C38.903,27.264 38.794,27.271 38.688,27.284 C38.001,27.362 37.239,27.684 36.766,28.211 C36.295,28.738 36.028,29.403 35.966,30.158 L35.914,30.839 C35.779,31.426 35.046,61.141 35.189,60.612 C35.295,64.172 41.043,64.793 44.163,64.164 C47.287,63.535 46.497,59.738 46.412,55.069 C46.412,55.069 46.264,48.931 45.975,42.444 C49.955,42.6 53.115,43.734 56.074,45.204 C62.049,48.167 65.212,52.71 65.212,59.401 C65.212,66.093 58.696,73.588 46.68,73.588 C34.662,73.588 29.504,70.555 23.685,65.742 C22.373,64.657 21.362,63.562 20.407,62.843 C19.451,62.123 16.914,62.013 16.233,63.697 C15.413,65.728 16.945,67.992 17.846,69.089 C19.258,70.809 22.744,74.274 26.607,76.286 C31.033,78.597 36.447,81.083 43.983,81.273 C50.802,81.446 61.568,80.894 69.323,72.136 M43.315,22.878 C42.687,23.366 41.982,23.702 41.271,23.845 C41.029,23.891 40.782,23.918 40.536,23.918 C39.194,23.918 37.88,23.179 37.02,21.94 C36.301,20.91 36.007,19.681 36.198,18.485 C36.319,17.725 36.605,17.065 37.026,16.572 C37.498,16.015 38.221,15.59 39.117,15.335 C39.635,15.192 40.167,15.115 40.697,15.115 L40.698,15.115 C41.855,15.115 42.897,15.461 43.705,16.119 C44.646,16.884 45.158,17.977 45.147,19.194 C45.137,20.613 44.452,21.991 43.315,22.878" id="Shape" fill="#FFFFFF"></path>
                        </g>
                    </g>
                </g>
            </g>
        </g>
    </g>
</svg>